0
SECTION
2
HEADER
9
$INSUNITS
70
4
9
$ACADVER
1
AC1014
9
$HANDSEED
5
FFFF
0
ENDSEC
0
SECTION
2
TABLES
0
TABLE
2
VPORT
5
8
100
AcDbSymbolTable
0
ENDTAB
0
TABLE
2
LTYPE
5
5
100
AcDbSymbolTable
0
LTYPE
5
14
100
AcDbSymbolTableRecord
100
AcDbLinetypeTableRecord
2
BYBLOCK
70
0
0
LTYPE
5
15
100
AcDbSymbolTableRecord
100
AcDbLinetypeTableRecord
2
BYLAYER
70
0
0
ENDTAB
0
TABLE
2
LAYER
5
2
100
AcDbSymbolTable
70
2
0
LAYER
5
50
100
AcDbSymbolTableRecord
100
AcDbLayerTableRecord
2
0
70
0
6
CONTINUOUS
0
ENDTAB
0
TABLE
2
STYLE
5
3
100
AcDbSymbolTable
70
1
0
STYLE
5
11
100
AcDbSymbolTableRecord
100
AcDbTextStyleTableRecord
2
STANDARD
70
0
0
ENDTAB
0
TABLE
2
VIEW
5
6
100
AcDbSymbolTable
70
0
0
ENDTAB
0
TABLE
2
UCS
5
7
100
AcDbSymbolTable
70
0
0
ENDTAB
0
TABLE
2
APPID
5
9
100
AcDbSymbolTable
70
2
0
APPID
5
12
100
AcDbSymbolTableRecord
100
AcDbRegAppTableRecord
2
ACAD
70
0
0
ENDTAB
0
TABLE
2
DIMSTYLE
5
A
100
AcDbSymbolTable
70
1
0
ENDTAB
0
TABLE
2
BLOCK_RECORD
5
1
100
AcDbSymbolTable
70
1
0
BLOCK_RECORD
5
1F
100
AcDbSymbolTableRecord
100
AcDbBlockTableRecord
2
*MODEL_SPACE
0
BLOCK_RECORD
5
1B
100
AcDbSymbolTableRecord
100
AcDbBlockTableRecord
2
*PAPER_SPACE
0
ENDTAB
0
ENDSEC
0
SECTION
2
BLOCKS
0
BLOCK
5
20
100
AcDbEntity
100
AcDbBlockBegin
2
*MODEL_SPACE
0
ENDBLK
5
21
100
AcDbEntity
100
AcDbBlockEnd
0
BLOCK
5
1C
100
AcDbEntity
100
AcDbBlockBegin
2
*PAPER_SPACE
0
ENDBLK
5
1D
100
AcDbEntity
100
AcDbBlockEnd
0
ENDSEC
0
SECTION
2
ENTITIES
0
LWPOLYLINE
5
100
100
AcDbEntity
8
0
100
AcDbPolyline
90
8
70
1
43
0.0
10
-89.224999999999966
20
78.275000000000006
10
-89.22499999999998
20
92.174999999999997
42
-0.41421356237309503
10
-88.674999999999983
20
92.725000000000023
10
-78.018749999999983
20
92.725000000000051
42
-0.41421356237308082
10
-77.468750000000014
20
92.175000000000011
10
-77.468750000000014
20
78.275000000000006
42
-0.41421356237311868
10
-78.018749999999983
20
77.725000000000023
10
-88.674999999999997
20
77.725000000000023
42
-0.4142135623730856
0
LWPOLYLINE
5
101
100
AcDbEntity
8
0
100
AcDbPolyline
90
8
70
1
43
0.0
10
-173.46900000000002
20
80.774999999999935
10
-173.46900000000002
20
90.674999999999955
42
-0.41421356237309503
10
-172.91900000000001
20
91.224999999999952
10
-154.42499999999998
20
91.225000000000009
42
-0.41421356237309503
10
-153.875
20
90.675000000000011
10
-153.875
20
80.774999999999991
42
-0.41421356237309503
10
-154.42500000000001
20
80.224999999999994
10
-172.91900000000001
20
80.224999999999937
42
-0.41421356237309503
0
LWPOLYLINE
5
102
100
AcDbEntity
8
0
100
AcDbPolyline
90
11
70
1
43
0.0
10
-93.224749999999986
20
89.72500000000008
10
-93.224970133384332
20
82.6807317000236
42
0.0026053712480278244
10
-93.224999999999937
20
82.675000000000097
10
-93.224999999999937
20
80.775000000000077
42
-0.41421356237309503
10
-93.774999999999949
20
80.22500000000008
10
-119.41874999999999
20
80.225000000000236
42
-0.41421356237309503
10
-119.96875
20
80.775000000000233
10
-119.96875
20
90.675000000000011
42
-0.41421356237309503
10
-119.41874999999999
20
91.225000000000009
10
-93.774750000000012
20
91.22500000000008
42
-0.41421356237309503
10
-93.22475
20
90.675000000000082
0
LWPOLYLINE
5
103
100
AcDbEntity
8
0
100
AcDbPolyline
90
8
70
1
43
0.0
10
-123.96875
20
92.174999999999997
10
-123.96875000000001
20
79.275000000000006
42
-0.41421356237309037
10
-124.51875000000001
20
78.725000000000023
10
-149.32499999999999
20
78.725000000000037
42
-0.41421356237311396
10
-149.875
20
79.275000000000006
10
-149.875
20
92.174999999999997
42
-0.41421356237305718
10
-149.32499999999999
20
92.724999999999966
10
-124.51875000000001
20
92.724999999999994
42
-0.4142135623730856
0
LWPOLYLINE
5
104
100
AcDbEntity
8
0
100
AcDbPolyline
90
8
70
1
43
0.0
10
-177.46875000000003
20
92.174999999999997
10
-177.46875
20
78.275000000000006
42
-0.4142135623730856
10
-178.01874999999995
20
77.724999999999994
10
-183.91874999999999
20
77.725000000000023
42
-0.41421356237318491
10
-184.46875000000003
20
78.275000000000006
10
-184.46875000000006
20
92.174999999999997
42
-0.41421356237319906
10
-183.91874999999999
20
92.725000000000023
10
-178.01875000000001
20
92.725000000000009
42
-0.41421356237299095
0
LWPOLYLINE
5
105
100
AcDbEntity
8
0
100
AcDbPolyline
90
92
70
1
43
0.0
10
-285.75000000000006
20
1.6000000000000014
42
0.41421356237309465
10
-284.15000000000009
20
2.2204460492503131e-15
10
-276.82132034355965
20
3.1918911957973251e-15
42
-0.19891236737966134
10
-275.76066017177982
20
-0.43933982822019019
10
-270.99289321881349
20
-5.2071067811865372
42
0.1989123673796615
10
-270.28578643762694
20
-5.4999999999999991
10
-268.45000000000005
20
-5.5
42
0.41421356237302542
10
-267.9500000000001
20
-5
10
-267.95000000000005
20
-0.24999999999999997
42
-0.99999999999999989
10
-265.45000000000005
20
-0.24999999999999936
10
-265.45000000000005
20
-5
42
0.41421356237302542
10
-264.95000000000005
20
-5.5000000000000302
10
-263.1142135623731
20
-5.5
42
0.19891236737967535
10
-262.40710678118654
20
-5.2071067811865488
10
-257.63933982822016
20
-0.4393398282201863
42
-0.19891236737965984
10
-256.57867965644033
20
0
10
-194.27132034355969
20
-5.134781488891349e-15
42
-0.19891236737965406
10
-193.21066017177992
20
-0.43933982822016593
10
-188.44289321881351
20
-5.207106781186539
42
0.19891236737966025
10
-187.73578643762698
20
-5.4999999999999982
10
-185.90000000000003
20
-5.5
42
0.41421356237302542
10
-185.40000000000006
20
-5
10
-185.40000000000006
20
-0.24999999999999997
42
-0.99999999999999989
10
-182.90000000000006
20
-0.24999999999999936
10
-182.90000000000006
20
-5
42
0.41421356237307749
10
-182.40000000000006
20
-5.4999999999999769
10
-180.56421356237311
20
-5.5
42
0.19891236737967535
10
-179.85710678118659
20
-5.2071067811865488
10
-175.0893398282202
20
-0.4393398282201863
42
-0.19891236737965984
10
-174.02867965644037
20
0
10
-111.72132034355965
20
5.5511151231257827e-16
42
-0.19891236737965742
10
-110.66066017177982
20
-0.43933982822017603
10
-105.89289321881346
20
-5.2071067811865488
42
0.19891236737965926
10
-105.18578643762692
20
-5.5000000000000027
10
-103.35000000000001
20
-5.5
42
0.41421356237310542
10
-102.84999999999998
20
-5
10
-102.84999999999999
20
-0.24999999999999997
42
-0.99999999999999989
10
-100.34999999999999
20
-0.24999999999999936
10
-100.34999999999999
20
-5
42
0.41421356237310542
10
-99.849999999999994
20
-5.4999999999999893
10
-98.014213562373101
20
-5.5
42
0.19891236737965518
10
-97.307106781186548
20
-5.2071067811865523
10
-92.539339828220179
20
-0.43933982822017925
42
-0.19891236737965812
10
-91.478679656440363
20
2.7755575615628914e-16
10
-29.171320343559639
20
8.3266726846886741e-16
42
-0.19891236737965845
10
-28.110660171779816
20
-0.43933982822017981
10
-23.342893218813444
20
-5.2071067811865497
42
0.19891236737966009
10
-22.635786437626898
20
-5.5000000000000027
10
-20.79999999999999
20
-5.5
42
0.41421356237309503
10
-20.299999999999994
20
-5
10
-20.299999999999994
20
-0.24999999999999997
42
-0.99999999999999989
10
-17.799999999999994
20
-0.24999999999999936
10
-17.799999999999994
20
-5
42
0.41421356237309209
10
-17.299999999999994
20
-5.5
10
-15.464213562373089
20
-5.5
42
0.19891236737965623
10
-14.757106781186542
20
-5.2071067811865515
10
-9.9893398282201691
20
-0.43933982822017781
42
-0.19891236737965776
10
-8.9286796564403481
20
0
10
-1.6000000000000014
20
0
42
0.41421356237309548
10
-1.3877787807814457e-15
20
1.6000000000000023
10
0
20
93.650000000000006
42
0.41421356237309642
10
-1.6000000000000019
20
95.25
10
-38.694304656440366
20
95.250000000000028
42
-0.19891236737965706
10
-39.754964828220182
20
95.689339828220184
10
-44.52273178118655
20
100.45710678118655
42
0.19891236737965731
10
-45.229838562373097
20
100.75000000000003
10
-47.065625000000004
20
100.75000000000001
42
0.41421356237307422
10
-47.565625000000011
20
100.25
10
-47.565625000000004
20
95.5
42
-0.99999999999999989
10
-50.065625000000004
20
95.5
10
-50.065625000000004
20
100.25
42
0.41421356237307422
10
-50.565624999999997
20
100.75
10
-52.401411437626912
20
100.75000000000001
42
0.19891236737965082
10
-53.108518218813458
20
100.45710678118655
10
-57.876285171779827
20
95.689339828220184
42
-0.1989123673796595
10
-58.936945343559657
20
95.25
10
-226.8130546564403
20
95.25
42
-0.19891236737966239
10
-227.87371482822013
20
95.689339828220199
10
-232.64148178118657
20
100.45710678118658
42
0.19891236737965745
10
-233.3485885623731
20
100.75
10
-235.18437500000005
20
100.75000000000001
42
0.4142135623730846
10
-235.6843750000001
20
100.25
10
-235.68437500000002
20
95.5
42
-0.99999999999999989
10
-238.18437500000002
20
95.5
10
-238.18437500000002
20
100.25
42
0.41421356237309503
10
-238.68437500000002
20
100.75000000000001
10
-240.52016143762694
20
100.75000000000001
42
0.19891236737962975
10
-241.22726821881344
20
100.45710678118655
10
-245.99503517177982
20
95.689339828220184
42
-0.19891236737965801
10
-247.05569534355965
20
95.25
10
-284.15000000000003
20
95.25
42
0.4142135623731048
10
-285.75
20
93.650000000000006
0
LWPOLYLINE
5
106
100
AcDbEntity
8
0
100
AcDbPolyline
90
8
70
1
43
0.0
10
-257.03125
20
79.274999999999977
42
0.41421356237301465
10
-256.48124999999999
20
78.724999999999994
10
-241.20000000000002
20
78.72499999999998
42
0.41421356237313761
10
-240.65000000000001
20
79.274999999999977
10
-240.65000000000001
20
92.174999999999997
42
0.41421356237309503
10
-241.20000000000002
20
92.724999999999994
10
-256.48124999999999
20
92.724999999999994
42
0.41421356237309503
10
-257.03125
20
92.174999999999997
0
LWPOLYLINE
5
107
100
AcDbEntity
8
0
100
AcDbPolyline
90
8
70
1
43
0.0
10
-131.66249999999999
20
40.625
42
0.41421356237304774
10
-131.11250000000001
20
41.174999999999997
10
-131.11250000000001
20
54.075000000000003
42
0.41421356237309503
10
-131.66250000000002
20
54.625000000000014
10
-144.5625
20
54.625
42
0.41421356237310919
10
-145.11250000000001
20
54.075000000000003
10
-145.11250000000001
20
41.174999999999997
42
0.41421356237311396
10
-144.5625
20
40.624999999999993
0
LWPOLYLINE
5
108
100
AcDbEntity
8
0
100
AcDbPolyline
90
8
70
1
43
0.0
10
-233.21875000000003
20
79.274999999999977
10
-233.21875000000003
20
92.174999999999997
42
-0.41421356237307611
10
-232.66874999999999
20
92.724999999999994
10
-217.3875000000001
20
92.724999999999966
42
-0.41421356237306667
10
-216.83750000000003
20
92.174999999999997
10
-216.83750000000003
20
79.274999999999977
42
-0.41421356237309975
10
-217.38750000000007
20
78.724999999999994
10
-232.66874999999999
20
78.725000000000037
42
-0.41421356237312812
0
LWPOLYLINE
5
109
100
AcDbEntity
8
0
100
AcDbPolyline
90
8
70
1
43
0.0
10
-197.78750000000002
20
73.125
10
-197.78750000000002
20
60.225000000000009
42
-0.41421356237307611
10
-198.33750000000006
20
59.675000000000004
10
-211.23750000000001
20
59.674999999999983
42
-0.41421356237303358
10
-211.78750000000002
20
60.225000000000009
10
-211.78750000000002
20
73.125
42
-0.41421356237313761
10
-211.23750000000001
20
73.674999999999983
10
-198.33750000000006
20
73.674999999999983
42
-0.41421356237307144
0
LWPOLYLINE
5
110
100
AcDbEntity
8
0
100
AcDbPolyline
90
8
70
1
43
0.0
10
-28.718749999999993
20
92.174999999999997
10
-28.71875
20
79.274999999999977
42
-0.41421356237310453
10
-29.268750000000008
20
78.72499999999998
10
-44.549999999999983
20
78.724999999999994
42
-0.41421356237311868
10
-45.100000000000009
20
79.274999999999977
10
-45.099999999999987
20
92.174999999999983
42
-0.41421356237304302
10
-44.549999999999997
20
92.724999999999966
10
-29.26874999999999
20
92.724999999999966
42
-0.414213562373069
0
LWPOLYLINE
5
111
100
AcDbEntity
8
0
100
AcDbPolyline
90
8
70
1
43
0.0
10
-4.9062500000000142
20
54.075000000000003
10
-4.9062500000000071
20
41.174999999999997
42
-0.41421356237310747
10
-5.4562500000000016
20
40.624999999999993
10
-23.118750000000006
20
40.625
42
-0.41421356237311163
10
-23.668749999999999
20
41.174999999999997
10
-23.668750000000006
20
54.075000000000003
42
-0.41421356237310919
10
-23.118750000000002
20
54.625000000000021
10
-5.4562500000000114
20
54.624999999999993
42
-0.41421356237311696
0
LWPOLYLINE
5
112
100
AcDbEntity
8
0
100
AcDbPolyline
90
8
70
1
43
0.0
10
-5.4562500000000114
20
78.72499999999998
10
-20.737500000000004
20
78.724999999999994
42
-0.41421356237310919
10
-21.287499999999994
20
79.274999999999977
10
-21.287499999999998
20
92.174999999999997
42
-0.41421356237304774
10
-20.737500000000001
20
92.724999999999966
10
-5.4562500000000114
20
92.724999999999966
42
-0.41421356237306434
10
-4.9062499999999787
20
92.174999999999997
10
-4.9062499999999982
20
79.274999999999977
42
-0.41421356237310802
0
LWPOLYLINE
5
113
100
AcDbEntity
8
0
100
AcDbPolyline
90
8
70
1
43
0.0
10
-264.46249999999998
20
92.174999999999997
42
0.41421356237309503
10
-265.01249999999999
20
92.724999999999994
10
-280.29375000000005
20
92.724999999999994
42
0.41421356237310453
10
-280.84375
20
92.174999999999997
10
-280.84375
20
79.274999999999977
42
0.41421356237312812
10
-280.29375000000005
20
78.725000000000023
10
-265.01249999999999
20
78.72499999999998
42
0.41421356237313761
10
-264.46249999999998
20
79.274999999999977
0
LWPOLYLINE
5
114
100
AcDbEntity
8
0
100
AcDbPolyline
90
8
70
1
43
0.0
10
-68.912500000000009
20
79.274999999999977
42
0.41421356237310919
10
-68.362499999999997
20
78.724999999999994
10
-53.081250000000004
20
78.724999999999994
42
0.41421356237311396
10
-52.531250000000007
20
79.274999999999977
10
-52.531250000000007
20
92.174999999999997
42
0.41421356237307611
10
-53.081250000000004
20
92.724999999999994
10
-68.362499999999997
20
92.724999999999966
42
0.41421356237304302
10
-68.912499999999994
20
92.174999999999997
0
LWPOLYLINE
5
115
100
AcDbEntity
8
0
100
AcDbPolyline
90
14
70
1
43
0.0
10
-203.52500000000003
20
78.724999999999994
10
-208.85624999999999
20
78.725000000000009
42
-0.41421356237316126
10
-209.40625
20
79.274999999999977
10
-209.40625
20
92.174999999999997
42
-0.41421356237309503
10
-208.85625000000002
20
92.724999999999994
10
-195.95625000000007
20
92.724999999999966
42
-0.41421356237310453
10
-195.40625000000006
20
92.174999999999997
10
-195.40625000000006
20
79.274999999999977
42
-0.41421356237312812
10
-195.95625000000001
20
78.725000000000023
10
-196.52500000000003
20
78.724999999999994
10
-196.52500000000003
20
78.274999999999977
42
-0.41421356237322277
10
-197.07499999999999
20
77.72499999999998
10
-202.97499999999999
20
77.725000000000023
42
-0.41421356237312812
10
-203.52500000000003
20
78.274999999999977
0
LWPOLYLINE
5
116
100
AcDbEntity
8
0
100
AcDbPolyline
90
8
70
1
43
0.0
10
-207.31250000000003
20
54.075000000000003
10
-207.31250000000003
20
41.174999999999997
42
-0.41421356237308082
10
-207.86250000000007
20
40.624999999999986
10
-220.76250000000002
20
40.624999999999972
42
-0.41421356237303358
10
-221.3125
20
41.174999999999997
10
-221.3125
20
54.075000000000003
42
-0.41421356237308082
10
-220.76249999999999
20
54.625000000000021
10
-207.86250000000001
20
54.625000000000028
42
-0.41421356237303358
0
LWPOLYLINE
5
117
100
AcDbEntity
8
0
100
AcDbPolyline
90
8
70
1
43
0.0
10
-135.03749999999999
20
73.674999999999983
10
-122.13750000000002
20
73.674999999999969
42
-0.41421356237309975
10
-121.58750000000001
20
73.125
10
-121.58750000000001
20
60.225000000000009
42
-0.41421356237310453
10
-122.13750000000003
20
59.675000000000011
10
-135.03749999999999
20
59.674999999999983
42
-0.41421356237309975
10
-135.58750000000001
20
60.225000000000009
10
-135.58750000000003
20
73.125
42
-0.41421356237305251
0
LWPOLYLINE
5
118
100
AcDbEntity
8
0
100
AcDbPolyline
90
8
70
1
43
0.0
10
-150.71250000000001
20
40.625
10
-163.61250000000001
20
40.625000000000036
42
-0.41421356237309503
10
-164.16250000000005
20
41.174999999999997
10
-164.16250000000005
20
54.075000000000003
42
-0.41421356237307611
10
-163.61250000000001
20
54.625
10
-150.71250000000001
20
54.625
42
-0.41421356237312346
10
-150.16250000000008
20
54.075000000000003
10
-150.16250000000008
20
41.174999999999997
42
-0.41421356237312346
0
LWPOLYLINE
5
119
100
AcDbEntity
8
0
100
AcDbPolyline
90
8
70
1
43
0.0
10
-188.26249999999999
20
54.075000000000003
10
-188.26249999999999
20
41.174999999999997
42
-0.41421356237311868
10
-188.81250000000009
20
40.624999999999986
10
-201.71250000000001
20
40.624999999999972
42
-0.41421356237303358
10
-202.26249999999999
20
41.174999999999997
10
-202.26249999999999
20
54.075000000000003
42
-0.41421356237308082
10
-201.71249999999998
20
54.625000000000021
10
-188.8125
20
54.624999999999993
42
-0.41421356237310919
0
LWPOLYLINE
5
120
100
AcDbEntity
8
0
100
AcDbPolyline
90
8
70
1
43
0.0
10
-257.31875000000002
20
54.075000000000003
42
0.41421356237314239
10
-257.86875000000003
20
54.62499999999995
10
-270.76875000000001
20
54.625
42
0.41421356237310919
10
-271.31875000000002
20
54.075000000000003
10
-271.31875000000002
20
41.174999999999997
42
0.4142135623730856
10
-270.76875000000001
20
40.624999999999986
10
-257.86874999999998
20
40.625
42
0.41421356237310919
10
-257.31875000000002
20
41.174999999999997
0
LWPOLYLINE
5
121
100
AcDbEntity
8
0
100
AcDbPolyline
90
8
70
1
43
0.0
10
-226.91249999999999
20
40.625
42
0.41421356237310919
10
-226.36250000000004
20
41.174999999999997
10
-226.36250000000004
20
54.075000000000003
42
0.41421356237312346
10
-226.91249999999999
20
54.624999999999979
10
-239.81250000000003
20
54.625
42
0.41421356237303358
10
-240.36250000000001
20
54.075000000000003
10
-240.36250000000001
20
41.174999999999997
42
0.41421356237311396
10
-239.81250000000003
20
40.624999999999986
0
LWPOLYLINE
5
122
100
AcDbEntity
8
0
100
AcDbPolyline
90
8
70
1
43
0.0
10
-169.21250000000001
20
54.075000000000003
42
0.41421356237311396
10
-169.76249999999999
20
54.625000000000043
10
-182.66249999999999
20
54.625
42
0.41421356237310919
10
-183.21250000000003
20
54.075000000000003
10
-183.21250000000003
20
41.174999999999997
42
0.41421356237310453
10
-182.66249999999997
20
40.624999999999986
10
-169.76249999999999
20
40.625
42
0.41421356237303358
10
-169.21250000000001
20
41.174999999999997
0
LWPOLYLINE
5
123
100
AcDbEntity
8
0
100
AcDbPolyline
90
8
70
1
43
0.0
10
-55.462500000000013
20
40.625
42
0.41421356237309975
10
-54.912500000000009
20
41.174999999999997
10
-54.912500000000009
20
54.075000000000003
42
0.41421356237309503
10
-55.462500000000006
20
54.625
10
-68.362499999999997
20
54.625
42
0.41421356237307611
10
-68.912499999999994
20
54.075000000000003
10
-68.912499999999994
20
41.174999999999997
42
0.41421356237307611
10
-68.362499999999997
20
40.625
0
LWPOLYLINE
5
124
100
AcDbEntity
8
0
100
AcDbPolyline
90
8
70
1
43
0.0
10
-93.012500000000031
20
54.075000000000003
10
-93.012500000000017
20
41.174999999999997
42
-0.41421356237307611
10
-93.562500000000014
20
40.625
10
-106.46250000000002
20
40.625000000000028
42
-0.41421356237308082
10
-107.01250000000002
20
41.174999999999997
10
-107.01250000000002
20
54.075000000000003
42
-0.41421356237310919
10
-106.46250000000002
20
54.625
10
-93.562500000000028
20
54.624999999999986
42
-0.4142135623730856
0
LWPOLYLINE
5
125
100
AcDbEntity
8
0
100
AcDbPolyline
90
8
70
1
43
0.0
10
-35.862500000000011
20
54.075000000000003
42
0.41421356237309037
10
-36.412500000000001
20
54.625
10
-49.3125
20
54.625
42
0.41421356237307611
10
-49.862499999999983
20
54.075000000000003
10
-49.862499999999997
20
41.174999999999997
42
0.4142135623730856
10
-49.312499999999986
20
40.625
10
-36.412500000000001
20
40.625
42
0.41421356237309037
10
-35.862499999999997
20
41.174999999999997
0
LWPOLYLINE
5
126
100
AcDbEntity
8
0
100
AcDbPolyline
90
8
70
1
43
0.0
10
-74.512500000000003
20
40.625
42
0.41421356237307611
10
-73.962500000000006
20
41.174999999999997
10
-73.962500000000006
20
54.075000000000003
42
0.41421356237308082
10
-74.512500000000017
20
54.625
10
-87.412499999999994
20
54.625
42
0.41421356237307611
10
-87.962500000000006
20
54.075000000000003
10
-87.962499999999991
20
41.174999999999997
42
0.41421356237306667
10
-87.412500000000009
20
40.625
0
LWPOLYLINE
5
127
100
AcDbEntity
8
0
100
AcDbPolyline
90
8
70
1
43
0.0
10
-240.65000000000003
20
35.024999999999991
10
-240.65000000000003
20
22.125000000000004
42
-0.41421356237314239
10
-241.20000000000007
20
21.575000000000021
10
-254.09999999999999
20
21.575000000000006
42
-0.41421356237307377
10
-254.65000000000003
20
22.125
10
-254.65000000000006
20
35.024999999999991
42
-0.41421356237307377
10
-254.09999999999999
20
35.57500000000001
10
-241.20000000000002
20
35.575000000000017
42
-0.41421356237316365
0
LWPOLYLINE
5
128
100
AcDbEntity
8
0
100
AcDbPolyline
90
8
70
1
43
0.0
10
-107.84999999999999
20
21.575000000000006
10
-120.75000000000003
20
21.574999999999985
42
-0.41421356237305718
10
-121.30000000000001
20
22.125
10
-121.29999999999998
20
35.024999999999991
42
-0.41421356237312812
10
-120.75000000000001
20
35.57500000000001
10
-107.84999999999999
20
35.575000000000003
42
-0.41421356237308082
10
-107.30000000000001
20
35.024999999999999
10
-107.30000000000001
20
22.125000000000004
42
-0.41421356237309503
0
LWPOLYLINE
5
129
100
AcDbEntity
8
0
100
AcDbPolyline
90
8
70
1
43
0.0
10
-183.5
20
35.024999999999999
42
0.41421356237303114
10
-184.05000000000001
20
35.575000000000017
10
-196.94999999999999
20
35.575000000000017
42
0.41421356237311396
10
-197.5
20
35.024999999999991
10
-197.5
20
22.125
42
0.41421356237313289
10
-196.94999999999999
20
21.575000000000006
10
-184.05000000000001
20
21.575000000000021
42
0.41421356237315654
10
-183.5
20
22.125000000000004
0
LWPOLYLINE
5
130
100
AcDbEntity
8
0
100
AcDbPolyline
90
8
70
1
43
0.0
10
-222.15000000000003
20
21.575000000000003
42
0.41421356237308793
10
-221.60000000000002
20
22.125
10
-221.59999999999999
20
35.024999999999999
42
0.41421356237308321
10
-222.15000000000003
20
35.575000000000003
10
-235.05000000000001
20
35.57500000000001
42
0.4142135623730383
10
-235.60000000000002
20
35.024999999999991
10
-235.60000000000002
20
22.125
42
0.41421356237315415
10
-235.05000000000001
20
21.575000000000024
0
LWPOLYLINE
5
131
100
AcDbEntity
8
0
100
AcDbPolyline
90
8
70
1
43
0.0
10
-126.35000000000004
20
35.024999999999999
42
0.41421356237310686
10
-126.90000000000001
20
35.575000000000003
10
-139.80000000000001
20
35.57500000000001
42
0.41421356237310919
10
-140.35000000000002
20
35.024999999999991
10
-140.35000000000002
20
22.125
42
0.41421356237309975
10
-139.80000000000004
20
21.575000000000006
10
-126.90000000000001
20
21.575000000000003
42
0.41421356237312579
10
-126.35000000000004
20
22.125000000000004
0
LWPOLYLINE
5
132
100
AcDbEntity
8
0
100
AcDbPolyline
90
8
70
1
43
0.0
10
-202.55000000000001
20
35.024999999999999
42
0.41421356237311163
10
-203.10000000000002
20
35.575000000000031
10
-216
20
35.57500000000001
42
0.4142135623730383
10
-216.55000000000001
20
35.024999999999991
10
-216.55000000000001
20
22.125
42
0.41421356237313522
10
-216
20
21.575000000000006
10
-203.10000000000002
20
21.575000000000003
42
0.41421356237313522
10
-202.55000000000001
20
22.125000000000004
0
LWPOLYLINE
5
133
100
AcDbEntity
8
0
100
AcDbPolyline
90
8
70
1
43
0.0
10
-265.01249999999999
20
21.575000000000003
42
0.41421356237313289
10
-264.46249999999998
20
22.125
10
-264.46249999999998
20
35.024999999999999
42
0.41421356237311163
10
-265.01249999999999
20
35.575000000000017
10
-277.91250000000002
20
35.57500000000001
42
0.4142135623730383
10
-278.46250000000003
20
35.024999999999991
10
-278.46250000000003
20
22.125
42
0.41421356237315415
10
-277.91250000000002
20
21.575000000000024
0
LWPOLYLINE
5
134
100
AcDbEntity
8
0
100
AcDbPolyline
90
20
70
1
43
0.0
10
-251.262
20
16.524999999999999
10
-250.72500000000002
20
16.524999999999963
42
-0.41421356237311396
10
-250.17500000000001
20
15.975000000000001
10
-250.17500000000001
20
3.0750000000000011
42
-0.41421356237313761
10
-250.72500000000002
20
2.5250000000000004
10
-282.67500000000001
20
2.5250000000000021
42
-0.41421356237305812
10
-283.22500000000008
20
3.0750000000000011
10
-283.22500000000008
20
15.975000000000001
42
-0.41421356237309742
10
-282.67500000000001
20
16.524999999999988
10
-282.13799999999998
20
16.524999999999999
10
-282.13799999999998
20
16.974999999999998
42
-0.41421356237310919
10
-281.58800000000002
20
17.524999999999984
10
-275.68799999999999
20
17.524999999999963
42
-0.41421356237311396
10
-275.13799999999998
20
16.975000000000001
10
-275.13799999999998
20
16.524999999999999
10
-258.262
20
16.524999999999999
10
-258.262
20
16.974999999999998
42
-0.41421356237313878
10
-257.71199999999999
20
17.525000000000002
10
-251.81200000000004
20
17.524999999999977
42
-0.41421356237321799
10
-251.262
20
16.974999999999998
0
LWPOLYLINE
5
135
100
AcDbEntity
8
0
100
AcDbPolyline
90
8
70
1
43
0.0
10
-272.75675000000001
20
55.07500000000001
42
0.41421356237313289
10
-273.30675000000002
20
55.625000000000007
10
-279.20675000000006
20
55.625000000000007
42
0.41421356237322277
10
-279.75675000000001
20
55.07500000000001
10
-279.75675000000001
20
40.175000000000011
42
0.41421356237316126
10
-279.20675000000006
20
39.625000000000028
10
-273.30675000000002
20
39.625000000000014
42
0.41421356237314239
10
-272.75675000000001
20
40.175000000000011
0
LWPOLYLINE
5
136
100
AcDbEntity
8
0
100
AcDbPolyline
90
20
70
1
43
0.0
10
-274.44425000000001
20
74.674999999999969
42
0.41421356237315654
10
-274.99425000000002
20
74.125
10
-274.99425000000002
20
73.674999999999983
10
-282.67500000000001
20
73.674999999999983
42
0.41421356237309975
10
-283.22500000000002
20
73.125
10
-283.22500000000008
20
60.225000000000009
42
0.41421356237305718
10
-282.67500000000001
20
59.675000000000011
10
-243.58125000000001
20
59.675000000000004
42
0.41421356237313761
10
-243.03125
20
60.225000000000009
10
-243.03125
20
73.125
42
0.41421356237306195
10
-243.58125000000001
20
73.674999999999983
10
-244.11824999999999
20
73.674999999999983
10
-244.11824999999999
20
74.125
42
0.41421356237315182
10
-244.66825
20
74.674999999999983
10
-250.56825000000003
20
74.674999999999997
42
0.41421356237308082
10
-251.11824999999999
20
74.125
10
-251.11824999999999
20
73.674999999999983
10
-267.99425000000002
20
73.674999999999983
10
-267.99424999999997
20
74.125
42
0.41421356237317547
10
-268.54425000000003
20
74.675000000000026
0
LWPOLYLINE
5
137
100
AcDbEntity
8
0
100
AcDbPolyline
90
8
70
1
43
0.0
10
-54.625
20
3.0750000000000011
42
0.41421356237311102
10
-54.075000000000003
20
2.5250000000000092
10
-41.174999999999997
20
2.5250000000000048
42
0.4142135623731113
10
-40.625
20
3.0750000000000011
10
-40.625
20
15.975000000000001
42
0.41421356237308443
10
-41.174999999999997
20
16.524999999999999
10
-54.075000000000003
20
16.525000000000002
42
0.41421356237307849
10
-54.624999999999986
20
15.975000000000001
0
LWPOLYLINE
5
138
100
AcDbEntity
8
0
100
AcDbPolyline
90
8
70
1
43
0.0
10
-21.574999999999996
20
15.975000000000001
42
0.41421356237309154
10
-22.124999999999993
20
16.525000000000002
10
-35.024999999999999
20
16.525000000000006
42
0.4142135623730962
10
-35.57500000000001
20
15.975000000000001
10
-35.57500000000001
20
3.0750000000000011
42
0.4142135623730776
10
-35.025000000000013
20
2.524999999999995
10
-22.125
20
2.5250000000000035
42
0.41421356237309803
10
-21.574999999999989
20
3.0750000000000011
0
LWPOLYLINE
5
139
100
AcDbEntity
8
0
100
AcDbPolyline
90
8
70
1
43
0.0
10
-126.06250000000003
20
41.174999999999997
10
-126.06250000000001
20
54.075000000000003
42
-0.41421356237313289
10
-125.51250000000003
20
54.624999999999986
10
-112.61250000000001
20
54.625000000000014
42
-0.41421356237310919
10
-112.06249999999999
20
54.075000000000003
10
-112.0625
20
41.174999999999997
42
-0.41421356237308082
10
-112.61250000000001
20
40.625000000000014
10
-125.51250000000003
20
40.625
42
-0.41421356237313289
0
LWPOLYLINE
5
140
100
AcDbEntity
8
0
100
AcDbPolyline
90
8
70
1
43
0.0
10
-97.775000000000034
20
15.975000000000001
10
-97.775000000000034
20
3.0750000000000011
42
-0.41421356237306667
10
-98.325000000000017
20
2.5250000000000004
10
-111.22500000000001
20
2.5249999999999928
42
-0.41421356237309154
10
-111.77500000000002
20
3.0750000000000011
10
-111.77500000000002
20
15.975000000000001
42
-0.41421356237310569
10
-111.22500000000001
20
16.525000000000002
10
-98.325000000000017
20
16.525000000000016
42
-0.41421356237309503
0
LWPOLYLINE
5
141
100
AcDbEntity
8
0
100
AcDbPolyline
90
8
70
1
43
0.0
10
-12.993249999999996
20
60.225000000000009
10
-12.993250000000003
20
74.125
42
-0.41421356237310686
10
-12.443250000000001
20
74.674999999999983
10
-6.5432500000000005
20
74.674999999999983
42
-0.4142135623731063
10
-5.9932499999999997
20
74.125
10
-5.9932500000000024
20
60.225000000000009
42
-0.41421356237310036
10
-6.5432500000000005
20
59.675000000000004
10
-12.443249999999999
20
59.675000000000011
42
-0.41421356237310569
0
LWPOLYLINE
5
142
100
AcDbEntity
8
0
100
AcDbPolyline
90
8
70
1
43
0.0
10
-29.869250000000001
20
74.125
42
0.41421356237309503
10
-30.419250000000009
20
74.675000000000026
10
-36.319249999999997
20
74.674999999999983
42
0.41421356237309742
10
-36.869250000000022
20
74.125
10
-36.869250000000008
20
60.225000000000009
42
0.41421356237310919
10
-36.31924999999999
20
59.675000000000004
10
-30.419250000000009
20
59.674999999999997
42
0.41421356237309742
10
-29.869249999999994
20
60.225000000000009
0
LWPOLYLINE
5
143
100
AcDbEntity
8
0
100
AcDbPolyline
90
8
70
1
43
0.0
10
-77.887500000000003
20
73.674999999999983
10
-64.987500000000011
20
73.674999999999983
42
-0.41421356237309503
10
-64.4375
20
73.125
10
-64.4375
20
60.225000000000009
42
-0.41421356237307611
10
-64.987499999999997
20
59.675000000000011
10
-77.887500000000003
20
59.675000000000011
42
-0.41421356237307611
10
-78.4375
20
60.225000000000009
10
-78.4375
20
73.125
42
-0.41421356237309037
0
LWPOLYLINE
5
144
100
AcDbEntity
8
0
100
AcDbPolyline
90
8
70
1
43
0.0
10
-14.431250000000002
20
73.125
42
0.41421356237310092
10
-14.981249999999999
20
73.674999999999983
10
-27.881250000000009
20
73.674999999999983
42
0.4142135623730927
10
-28.431250000000006
20
73.125
10
-28.431250000000009
20
60.225000000000016
42
0.41421356237312101
10
-27.881250000000009
20
59.675000000000011
10
-14.981249999999999
20
59.675000000000011
42
0.41421356237307849
10
-14.431249999999984
20
60.225000000000009
0
LWPOLYLINE
5
145
100
AcDbEntity
8
0
100
AcDbPolyline
90
8
70
1
43
0.0
10
-59.387499999999989
20
60.225000000000009
10
-59.387500000000003
20
73.125
42
-0.41421356237309975
10
-58.837499999999999
20
73.674999999999997
10
-45.9375
20
73.674999999999983
42
-0.41421356237309037
10
-45.387500000000003
20
73.125
10
-45.387500000000003
20
60.225000000000009
42
-0.41421356237307611
10
-45.9375
20
59.674999999999997
10
-58.837499999999991
20
59.675000000000026
42
-0.41421356237310453
0
LWPOLYLINE
5
146
100
AcDbEntity
8
0
100
AcDbPolyline
90
8
70
1
43
0.0
10
-83.487500000000026
20
73.125
42
0.41421356237309503
10
-84.037500000000023
20
73.674999999999955
10
-96.9375
20
73.674999999999983
42
0.41421356237309503
10
-97.487500000000026
20
73.125
10
-97.487500000000011
20
60.225000000000009
42
0.4142135623730856
10
-96.937500000000014
20
59.675000000000011
10
-84.037500000000023
20
59.675000000000011
42
0.41421356237310919
10
-83.487500000000026
20
60.225000000000009
0
LWPOLYLINE
5
147
100
AcDbEntity
8
0
100
AcDbPolyline
90
8
70
1
43
0.0
10
-102.53750000000002
20
73.125
10
-102.53750000000002
20
60.225000000000009
42
-0.4142135623730856
10
-103.08750000000003
20
59.675000000000011
10
-115.98750000000001
20
59.675000000000011
42
-0.41421356237307611
10
-116.53750000000001
20
60.225000000000009
10
-116.53749999999999
20
73.125
42
-0.41421356237309503
10
-115.98749999999997
20
73.674999999999983
10
-103.08750000000003
20
73.674999999999997
42
-0.41421356237310453
0
LWPOLYLINE
5
148
100
AcDbEntity
8
0
100
AcDbPolyline
90
8
70
1
43
0.0
10
-173.13749999999999
20
73.674999999999983
42
0.41421356237310919
10
-173.68750000000003
20
73.125
10
-173.68750000000003
20
60.225000000000009
42
0.4142135623730856
10
-173.13749999999999
20
59.674999999999997
10
-160.23750000000004
20
59.675000000000011
42
0.41421356237311868
10
-159.68750000000003
20
60.225000000000009
10
-159.68750000000003
20
73.125
42
0.41421356237309037
10
-160.23750000000004
20
73.674999999999983
0
LWPOLYLINE
5
149
100
AcDbEntity
8
0
100
AcDbPolyline
90
8
70
1
43
0.0
10
-178.73750000000001
20
73.125
10
-178.73750000000001
20
60.225000000000009
42
-0.41421356237307611
10
-179.28750000000005
20
59.675000000000004
10
-192.1875
20
59.675000000000047
42
-0.41421356237315182
10
-192.73750000000007
20
60.225000000000009
10
-192.73750000000004
20
73.125
42
-0.41421356237310919
10
-192.1875
20
73.674999999999983
10
-179.28750000000005
20
73.674999999999983
42
-0.41421356237307144
0
LWPOLYLINE
5
150
100
AcDbEntity
8
0
100
AcDbPolyline
90
8
70
1
43
0.0
10
-140.63750000000002
20
73.125
10
-140.63750000000002
20
60.225000000000009
42
-0.41421356237304774
10
-141.1875
20
59.675000000000011
10
-154.08750000000001
20
59.675000000000004
42
-0.41421356237308082
10
-154.63750000000005
20
60.225000000000009
10
-154.63750000000002
20
73.125
42
-0.41421356237310453
10
-154.08750000000001
20
73.674999999999983
10
-141.18750000000003
20
73.675000000000011
42
-0.41421356237309037
0
LWPOLYLINE
5
151
100
AcDbEntity
8
0
100
AcDbPolyline
90
8
70
1
43
0.0
10
-217.38749999999999
20
59.675000000000011
10
-230.28749999999999
20
59.674999999999997
42
-0.4142135623730856
10
-230.83750000000006
20
60.225000000000009
10
-230.83750000000006
20
73.125
42
-0.41421356237310919
10
-230.28750000000002
20
73.674999999999983
10
-217.38750000000005
20
73.67499999999994
42
-0.41421356237312346
10
-216.83750000000003
20
73.125
10
-216.83750000000003
20
60.225000000000009
42
-0.41421356237310919
0
LWPOLYLINE
5
152
100
AcDbEntity
8
0
100
AcDbPolyline
90
8
70
1
43
0.0
10
-135.87500000000003
20
15.975000000000001
42
0.41421356237311752
10
-136.42500000000001
20
16.524999999999988
10
-149.32499999999999
20
16.525000000000002
42
0.41421356237310569
10
-149.875
20
15.975000000000001
10
-149.875
20
3.0750000000000011
42
0.41421356237309154
10
-149.32499999999999
20
2.524999999999995
10
-136.42500000000001
20
2.5250000000000004
42
0.41421356237310836
10
-135.875
20
3.0750000000000011
0
LWPOLYLINE
5
153
100
AcDbEntity
8
0
100
AcDbPolyline
90
8
70
1
43
0.0
10
-21.287499999999998
20
22.125
42
0.41421356237309975
10
-20.737500000000001
20
21.575000000000003
10
-7.8375000000000004
20
21.575000000000006
42
0.41421356237310508
10
-7.2875000000000156
20
22.125000000000004
10
-7.2874999999999979
20
35.024999999999999
42
0.41421356237310269
10
-7.8375000000000128
20
35.57500000000001
10
-20.737500000000001
20
35.57500000000001
42
0.41421356237309742
10
-21.287500000000001
20
35.024999999999991
0
LWPOLYLINE
5
154
100
AcDbEntity
8
0
100
AcDbPolyline
90
8
70
1
43
0.0
10
-88.250000000000028
20
35.024999999999991
10
-88.250000000000014
20
22.125000000000004
42
-0.41421356237315182
10
-88.80000000000004
20
21.57500000000001
10
-101.70000000000002
20
21.57500000000001
42
-0.41421356237309037
10
-102.25000000000001
20
22.125
10
-102.25000000000001
20
35.024999999999991
42
-0.4142135623730927
10
-101.7
20
35.575000000000003
10
-88.800000000000026
20
35.575000000000003
42
-0.41421356237312101
0
LWPOLYLINE
5
155
100
AcDbEntity
8
0
100
AcDbPolyline
90
8
70
1
43
0.0
10
-50.150000000000013
20
35.024999999999999
42
0.41421356237308793
10
-50.700000000000003
20
35.57500000000001
10
-63.600000000000001
20
35.57500000000001
42
0.41421356237310686
10
-64.149999999999991
20
35.024999999999991
10
-64.150000000000006
20
22.125
42
0.41421356237309975
10
-63.599999999999994
20
21.574999999999996
10
-50.700000000000003
20
21.575000000000003
42
0.41421356237310686
10
-50.150000000000006
20
22.125000000000004
0
LWPOLYLINE
5
156
100
AcDbEntity
8
0
100
AcDbPolyline
90
8
70
1
43
0.0
10
-145.94999999999999
20
21.575000000000006
10
-158.85000000000002
20
21.575000000000028
42
-0.41421356237309975
10
-159.40000000000001
20
22.125
10
-159.40000000000001
20
35.024999999999991
42
-0.41421356237310919
10
-158.84999999999999
20
35.57500000000001
10
-145.94999999999999
20
35.575000000000017
42
-0.41421356237306667
10
-145.39999999999995
20
35.024999999999999
10
-145.39999999999995
20
22.125000000000004
42
-0.41421356237308082
0
LWPOLYLINE
5
157
100
AcDbEntity
8
0
100
AcDbPolyline
90
8
70
1
43
0.0
10
-44.549999999999983
20
35.57500000000001
10
-31.649999999999991
20
35.57500000000001
42
-0.41421356237308082
10
-31.100000000000009
20
35.024999999999999
10
-31.100000000000001
20
22.125000000000004
42
-0.41421356237309503
10
-31.649999999999999
20
21.575000000000006
10
-44.549999999999983
20
21.57500000000001
42
-0.41421356237310453
10
-45.100000000000009
20
22.125
10
-45.100000000000016
20
35.024999999999991
42
-0.41421356237310453
0
LWPOLYLINE
5
158
100
AcDbEntity
8
0
100
AcDbPolyline
90
8
70
1
43
0.0
10
-164.44999999999999
20
35.024999999999991
10
-164.44999999999999
20
22.125000000000004
42
-0.41421356237315654
10
-165
20
21.575000000000021
10
-177.90000000000003
20
21.57500000000001
42
-0.41421356237310919
10
-178.44999999999999
20
22.125
10
-178.4500000000001
20
35.024999999999991
42
-0.41421356237307377
10
-177.90000000000003
20
35.57500000000001
10
-165
20
35.575000000000017
42
-0.41421356237303358
0
LWPOLYLINE
5
159
100
AcDbEntity
8
0
100
AcDbPolyline
90
8
70
1
43
0.0
10
-83.200000000000003
20
22.125
42
0.41421356237309975
10
-82.650000000000006
20
21.575000000000028
10
-69.750000000000014
20
21.575000000000003
42
0.41421356237310686
10
-69.200000000000017
20
22.125000000000004
10
-69.200000000000003
20
35.024999999999999
42
0.41421356237309742
10
-69.750000000000014
20
35.57500000000001
10
-82.650000000000006
20
35.57500000000001
42
0.41421356237312812
10
-83.200000000000003
20
35.024999999999991
0
LWPOLYLINE
5
160
100
AcDbEntity
8
0
100
AcDbPolyline
90
8
70
1
43
0.0
10
-212.62500000000003
20
2.5249999999999915
42
0.41421356237305634
10
-212.0750000000001
20
3.0750000000000011
10
-212.07499999999999
20
15.975000000000001
42
0.41421356237310919
10
-212.62500000000003
20
16.524999999999999
10
-225.52500000000006
20
16.525000000000006
42
0.41421356237310214
10
-226.07500000000002
20
15.975000000000001
10
-226.07500000000002
20
3.0750000000000011
42
0.41421356237310863
10
-225.52500000000006
20
2.5250000000000039
0
LWPOLYLINE
5
161
100
AcDbEntity
8
0
100
AcDbPolyline
90
8
70
1
43
0.0
10
-155.47499999999999
20
2.5250000000000039
10
-168.37500000000003
20
2.525000000000003
42
-0.41421356237313345
10
-168.92500000000001
20
3.0750000000000011
10
-168.92500000000001
20
15.975000000000001
42
-0.41421356237313289
10
-168.37500000000003
20
16.525000000000002
10
-155.47499999999999
20
16.524999999999988
42
-0.41421356237311752
10
-154.92500000000001
20
15.975000000000001
10
-154.92499999999998
20
3.0750000000000011
42
-0.41421356237310836
0
LWPOLYLINE
5
162
100
AcDbEntity
8
0
100
AcDbPolyline
90
8
70
1
43
0.0
10
-244.57499999999999
20
16.524999999999999
10
-231.67500000000004
20
16.525000000000031
42
-0.41421356237311163
10
-231.12500000000011
20
15.975000000000001
10
-231.12500000000017
20
3.0750000000000011
42
-0.41421356237312962
10
-231.67500000000004
20
2.5250000000000004
10
-244.57499999999999
20
2.5250000000000066
42
-0.41421356237307466
10
-245.12500000000003
20
3.0750000000000011
10
-245.12500000000003
20
15.975000000000001
42
-0.41421356237307144
0
LWPOLYLINE
5
163
100
AcDbEntity
8
0
100
AcDbPolyline
90
8
70
1
43
0.0
10
-187.42500000000004
20
16.524999999999999
10
-174.52500000000001
20
16.525000000000031
42
-0.41421356237305601
10
-173.97500000000005
20
15.975000000000001
10
-173.97500000000011
20
3.0750000000000011
42
-0.41421356237307699
10
-174.52500000000001
20
2.5250000000000004
10
-187.42500000000004
20
2.5250000000000257
42
-0.41421356237310242
10
-187.97499999999999
20
3.0750000000000011
10
-187.97499999999997
20
15.975000000000001
42
-0.41421356237321211
0
LWPOLYLINE
5
164
100
AcDbEntity
8
0
100
AcDbPolyline
90
8
70
1
43
0.0
10
-193.02500000000009
20
15.975000000000001
10
-193.02500000000009
20
3.0750000000000011
42
-0.41421356237305634
10
-193.57500000000002
20
2.5249999999999915
10
-206.47500000000002
20
2.5250000000000044
42
-0.41421356237313262
10
-207.02500000000001
20
3.0750000000000011
10
-207.02500000000001
20
15.975000000000001
42
-0.4142135623731128
10
-206.47500000000002
20
16.52500000000002
10
-193.57500000000002
20
16.525000000000013
42
-0.41421356237302648
0
LWPOLYLINE
5
165
100
AcDbEntity
8
0
100
AcDbPolyline
90
8
70
1
43
0.0
10
-116.82500000000003
20
15.975000000000001
42
0.41421356237311752
10
-117.375
20
16.524999999999988
10
-130.27500000000001
20
16.525000000000002
42
0.4142135623730655
10
-130.82499999999999
20
15.975000000000001
10
-130.82500000000005
20
3.0750000000000011
42
0.41421356237309154
10
-130.27500000000001
20
2.524999999999995
10
-117.375
20
2.5250000000000004
42
0.41421356237310836
10
-116.82500000000002
20
3.0750000000000011
0
LWPOLYLINE
5
166
100
AcDbEntity
8
0
100
AcDbPolyline
90
8
70
1
43
0.0
10
-79.275000000000006
20
2.5249999999999986
42
0.41421356237309176
10
-78.725000000000023
20
3.0750000000000011
10
-78.725000000000023
20
15.975000000000001
42
0.41421356237309503
10
-79.27500000000002
20
16.524999999999999
10
-92.174999999999997
20
16.525000000000009
42
0.41421356237307144
10
-92.725000000000009
20
15.975000000000001
10
-92.724999999999966
20
3.0750000000000011
42
0.41421356237307849
10
-92.175000000000011
20
2.5250000000000039
0
LWPOLYLINE
5
167
100
AcDbEntity
8
0
100
AcDbPolyline
90
8
70
1
43
0.0
10
-255.88075000000006
20
40.175000000000011
10
-255.88075000000006
20
55.07500000000001
42
-0.41421356237309975
10
-255.33074999999999
20
55.625000000000007
10
-249.43075000000007
20
55.624999999999993
42
-0.41421356237321799
10
-248.88075000000003
20
55.07500000000001
10
-248.88075000000009
20
40.175000000000011
42
-0.41421356237313289
10
-249.4307500000001
20
39.625000000000028
10
-255.33074999999999
20
39.625000000000014
42
-0.41421356237305718
0
LWPOLYLINE
5
168
100
AcDbEntity
8
0
100
AcDbPolyline
90
8
70
1
43
0.0
10
-73.674999999999983
20
3.0750000000000011
42
0.4142135623731007
10
-73.125
20
2.5250000000000021
10
-60.225000000000009
20
2.5250000000000048
42
0.4142135623731113
10
-59.675000000000011
20
3.0750000000000011
10
-59.674999999999997
20
15.975000000000001
42
0.41421356237309503
10
-60.225000000000009
20
16.524999999999999
10
-73.125
20
16.525000000000002
42
0.4142135623730927
10
-73.674999999999997
20
15.975000000000001
0
LWPOLYLINE
5
169
100
AcDbEntity
8
0
100
AcDbPolyline
90
8
70
1
43
0.0
10
-3.0750000000000099
20
2.5250000000000039
10
-15.975000000000001
20
2.5250000000000035
42
-0.4142135623730977
10
-16.525000000000002
20
3.0750000000000011
10
-16.525000000000002
20
15.975000000000001
42
-0.41421356237309503
10
-15.975000000000001
20
16.525000000000002
10
-3.0750000000000099
20
16.524999999999999
42
-0.41421356237309886
10
-2.5250000000000004
20
15.975000000000001
10
-2.5250000000000039
20
3.0750000000000011
42
-0.41421356237310036
0
ENDSEC
0
SECTION
2
OBJECTS
0
DICTIONARY
5
C
100
AcDbDictionary
3
ACAD_GROUP
350
D
3
ACAD_MLINESTYLE
350
17
0
DICTIONARY
5
D
100
AcDbDictionary
0
DICTIONARY
5
1A
330
C
100
AcDbDictionary
0
DICTIONARY
5
17
100
AcDbDictionary
0
ENDSEC
0
EOF
